<svg width="14" height="14" viewBox="0 0 14 14" fill="none" xmlns="http://www.w3.org/2000/svg">
<path d="M11.0833 2.33341H9.91663V1.75008C9.91663 1.59537 9.85517 1.447 9.74577 1.3376C9.63638 1.22821 9.488 1.16675 9.33329 1.16675C9.17858 1.16675 9.03021 1.22821 8.92081 1.3376C8.81142 1.447 8.74996 1.59537 8.74996 1.75008V2.33341H5.24996V1.75008C5.24996 1.59537 5.1885 1.447 5.07911 1.3376C4.96971 1.22821 4.82134 1.16675 4.66663 1.16675C4.51192 1.16675 4.36354 1.22821 4.25415 1.3376C4.14475 1.447 4.08329 1.59537 4.08329 1.75008V2.33341H2.91663C2.4525 2.33341 2.00738 2.51779 1.67919 2.84598C1.351 3.17417 1.16663 3.61929 1.16663 4.08342V11.0834C1.16663 11.5475 1.351 11.9927 1.67919 12.3209C2.00738 12.649 2.4525 12.8334 2.91663 12.8334H11.0833C11.5474 12.8334 11.9925 12.649 12.3207 12.3209C12.6489 11.9927 12.8333 11.5475 12.8333 11.0834V4.08342C12.8333 3.61929 12.6489 3.17417 12.3207 2.84598C11.9925 2.51779 11.5474 2.33341 11.0833 2.33341ZM11.6666 11.0834C11.6666 11.2381 11.6052 11.3865 11.4958 11.4959C11.3864 11.6053 11.238 11.6667 11.0833 11.6667H2.91663C2.76192 11.6667 2.61354 11.6053 2.50415 11.4959C2.39475 11.3865 2.33329 11.2381 2.33329 11.0834V7.00008H11.6666V11.0834ZM11.6666 5.83342H2.33329V4.08342C2.33329 3.92871 2.39475 3.78033 2.50415 3.67094C2.61354 3.56154 2.76192 3.50008 2.91663 3.50008H4.08329V4.08342C4.08329 4.23812 4.14475 4.3865 4.25415 4.49589C4.36354 4.60529 4.51192 4.66675 4.66663 4.66675C4.82134 4.66675 4.96971 4.60529 5.07911 4.49589C5.1885 4.3865 5.24996 4.23812 5.24996 4.08342V3.50008H8.74996V4.08342C8.74996 4.23812 8.81142 4.3865 8.92081 4.49589C9.03021 4.60529 9.17858 4.66675 9.33329 4.66675C9.488 4.66675 9.63638 4.60529 9.74577 4.49589C9.85517 4.3865 9.91663 4.23812 9.91663 4.08342V3.50008H11.0833C11.238 3.50008 11.3864 3.56154 11.4958 3.67094C11.6052 3.78033 11.6666 3.92871 11.6666 4.08342V5.83342Z" fill="#111563"/>
</svg>
