<svg width="24" height="25" viewBox="0 0 24 25" fill="none" xmlns="http://www.w3.org/2000/svg">
<path d="M15.5351 3.30797C14.7791 2.55197 13.4631 2.55197 12.7071 3.30797L2.80806 13.207C2.43336 13.5822 2.2229 14.0907 2.2229 14.621C2.2229 15.1512 2.43336 15.6598 2.80806 16.035L8.46506 21.692C8.84306 22.07 9.34506 22.278 9.87906 22.278C10.4131 22.278 10.9151 22.07 11.2931 21.692L21.1921 11.793C21.5701 11.415 21.7781 10.913 21.7781 10.379C21.7781 9.84497 21.5701 9.34297 21.1921 8.96497L15.5351 3.30797ZM9.87906 20.278V21.278V20.278L4.22206 14.621L14.1211 4.72197L19.7781 10.379L9.87906 20.278Z" fill="#63718E"/>
<path d="M9 16.5C9.55228 16.5 10 16.0523 10 15.5C10 14.9477 9.55228 14.5 9 14.5C8.44772 14.5 8 14.9477 8 15.5C8 16.0523 8.44772 16.5 9 16.5Z" fill="#63718E"/>
<path d="M15.707 22.207L14.293 20.793L20.293 14.793L21.707 16.208L15.707 22.207Z" fill="#63718E"/>
<path d="M8.29297 2.79297L9.70697 4.20697L3.70697 10.207L2.29297 8.79197L8.29297 2.79297Z" fill="#63718E"/>
</svg>
