<svg width="41" height="32" viewBox="0 0 41 32" fill="none" xmlns="http://www.w3.org/2000/svg">
<path d="M33.462 14.2357C33.462 14.2357 34.0029 16.8929 34.124 17.45H31.7465C31.9814 16.8143 32.8854 14.3429 32.8854 14.3429C32.8712 14.3643 33.1203 13.6929 33.2627 13.2786L33.462 14.2357ZM41 3.42857V28.5714C41 30.4643 39.4696 32 37.5833 32H3.41667C1.53038 32 0 30.4643 0 28.5714V3.42857C0 1.53571 1.53038 0 3.41667 0H37.5833C39.4696 0 41 1.53571 41 3.42857ZM10.855 21.3714L15.3536 10.2857H12.3285L9.53108 17.8571L9.225 16.3214L8.22847 11.2214C8.06476 10.5143 7.55937 10.3143 6.93299 10.2857H2.3276L2.27778 10.5071C3.40243 10.7929 4.40608 11.2071 5.2816 11.7286L7.82986 21.3714H10.855ZM17.5745 21.3857L19.3682 10.2857H16.5068L14.7201 21.3857H17.5745ZM27.5326 17.7571C27.5469 16.4929 26.7781 15.5286 25.1339 14.7357C24.1302 14.2286 23.5181 13.8857 23.5181 13.3643C23.5323 12.8929 24.0377 12.4071 25.1623 12.4071C26.0948 12.3857 26.7781 12.6071 27.2906 12.8286L27.5469 12.95L27.9384 10.55C27.376 10.3286 26.4792 10.0786 25.3759 10.0786C22.55 10.0786 20.5641 11.5929 20.5498 13.75C20.5285 15.3429 21.9734 16.2286 23.0554 16.7643C24.1587 17.3071 24.5359 17.6643 24.5359 18.1429C24.5217 18.8857 23.6391 19.2286 22.8205 19.2286C21.6816 19.2286 21.0694 19.05 20.137 18.6357L19.7597 18.4571L19.3611 20.95C20.0302 21.2571 21.2687 21.5286 22.55 21.5429C25.5538 21.55 27.5113 20.0571 27.5326 17.7571ZM37.5833 21.3857L35.2771 10.2857H33.0634C32.38 10.2857 31.8604 10.4857 31.5686 11.2071L27.3191 21.3857H30.3229C30.3229 21.3857 30.8141 20.0143 30.9208 19.7214H34.5938C34.6792 20.1143 34.9354 21.3857 34.9354 21.3857H37.5833Z" fill="#7E8183"/>
</svg>
