<svg width="48" height="32" viewBox="0 0 48 32" fill="none" xmlns="http://www.w3.org/2000/svg">
<path d="M23.3125 4.4375C21.5347 3.25694 19.5833 2.66667 17.4583 2.66667C16.0278 2.66667 14.6562 2.94792 13.3438 3.51042C12.0312 4.07292 10.9028 4.82639 9.95833 5.77083C9.01389 6.71528 8.26042 7.84028 7.69792 9.14583C7.13542 10.4514 6.85417 11.8194 6.85417 13.25C6.85417 14.6944 7.13542 16.0694 7.69792 17.375C8.26042 18.6806 9.01389 19.8056 9.95833 20.75C10.9028 21.6944 12.0278 22.4479 13.3333 23.0104C14.6389 23.5729 16.0139 23.8542 17.4583 23.8542C19.5833 23.8542 21.5347 23.2639 23.3125 22.0833C21.4931 20.5972 20.2569 18.7535 19.6042 16.5521C18.9514 14.3507 18.9549 12.1528 19.6146 9.95833C20.2743 7.76389 21.5069 5.92361 23.3125 4.4375ZM24 4.9375C22.25 6.3125 21.0556 8.04514 20.4167 10.1354C19.7778 12.2257 19.7743 14.3125 20.4062 16.3958C21.0382 18.4792 22.2361 20.2083 24 21.5833C25.7639 20.2083 26.9618 18.4792 27.5938 16.3958C28.2257 14.3125 28.2222 12.2257 27.5833 10.1354C26.9444 8.04514 25.75 6.3125 24 4.9375ZM24.6875 4.4375C26.4931 5.92361 27.7257 7.76736 28.3854 9.96875C29.0451 12.1701 29.0486 14.3715 28.3958 16.5729C27.7431 18.7743 26.5069 20.6111 24.6875 22.0833C26.4653 23.2639 28.4167 23.8542 30.5417 23.8542C31.9861 23.8542 33.3611 23.5729 34.6667 23.0104C35.9722 22.4479 37.0972 21.6944 38.0417 20.75C38.9861 19.8056 39.7396 18.6806 40.3021 17.375C40.8646 16.0694 41.1458 14.6944 41.1458 13.25C41.1458 11.8194 40.8646 10.4514 40.3021 9.14583C39.7396 7.84028 38.9861 6.71528 38.0417 5.77083C37.0972 4.82639 35.9688 4.07292 34.6562 3.51042C33.3438 2.94792 31.9722 2.66667 30.5417 2.66667C28.4167 2.66667 26.4653 3.25694 24.6875 4.4375ZM40.125 19.4792H40.2708V19.4167H39.9167V19.4792H40.0625V19.8333H40.125V19.4792ZM40.7292 19.8333H40.8125V19.4167H40.7083L40.5833 19.6875L40.4583 19.4167H40.3542V19.8333H40.4167V19.5208L40.5417 19.7917H40.625L40.7292 19.5208V19.8333ZM40.5625 29V29.0417H40.4583V28.9792H40.5625V29ZM40.5625 29.1875H40.625L40.5417 29.0833H40.5833L40.6042 29.0625C40.6181 29.0486 40.625 29.0278 40.625 29C40.625 28.9722 40.6181 28.9514 40.6042 28.9375L40.5833 28.9167H40.3958V29.1875H40.4583V29.0833H40.4792L40.5625 29.1875ZM14.2708 27.7708C14.2708 27.5069 14.3472 27.2917 14.5 27.125C14.6528 26.9583 14.8611 26.875 15.125 26.875C15.375 26.875 15.5764 26.9618 15.7292 27.1354C15.8819 27.309 15.9583 27.5208 15.9583 27.7708C15.9583 28.0347 15.8819 28.25 15.7292 28.4167C15.5764 28.5833 15.375 28.6667 15.125 28.6667C14.8611 28.6667 14.6528 28.5833 14.5 28.4167C14.3472 28.25 14.2708 28.0347 14.2708 27.7708ZM24.125 26.8542C24.5417 26.8542 24.7847 27.0764 24.8542 27.5208H23.3958C23.4653 27.0764 23.7083 26.8542 24.125 26.8542ZM31.5417 27.7708C31.5417 27.5069 31.6181 27.2917 31.7708 27.125C31.9236 26.9583 32.125 26.875 32.375 26.875C32.625 26.875 32.8299 26.9618 32.9896 27.1354C33.1493 27.309 33.2292 27.5208 33.2292 27.7708C33.2292 28.0347 33.1528 28.25 33 28.4167C32.8472 28.5833 32.6389 28.6667 32.375 28.6667C32.125 28.6667 31.9236 28.5833 31.7708 28.4167C31.6181 28.25 31.5417 28.0347 31.5417 27.7708ZM37.2083 27.7708C37.2083 27.5208 37.2882 27.309 37.4479 27.1354C37.6076 26.9618 37.8125 26.875 38.0625 26.875C38.3125 26.875 38.5174 26.9618 38.6771 27.1354C38.8368 27.309 38.9167 27.5208 38.9167 27.7708C38.9167 28.0347 38.8368 28.25 38.6771 28.4167C38.5174 28.5833 38.3125 28.6667 38.0625 28.6667C37.8125 28.6667 37.6076 28.5799 37.4479 28.4062C37.2882 28.2326 37.2083 28.0208 37.2083 27.7708ZM40.5 29.2708C40.4722 29.2708 40.4444 29.2639 40.4167 29.25C40.4028 29.25 40.3819 29.2361 40.3542 29.2083C40.3264 29.1806 40.3125 29.1597 40.3125 29.1458C40.2986 29.1181 40.2917 29.0903 40.2917 29.0625C40.2917 29.0208 40.2986 28.9931 40.3125 28.9792C40.3125 28.9514 40.3264 28.9236 40.3542 28.8958L40.375 28.875C40.4028 28.875 40.4167 28.8681 40.4167 28.8542C40.4444 28.8403 40.4722 28.8333 40.5 28.8333C40.5417 28.8333 40.5694 28.8403 40.5833 28.8542L40.6667 28.8958L40.7083 28.9792V29C40.7222 29.0278 40.7292 29.0486 40.7292 29.0625L40.7083 29.0833V29.1458L40.6875 29.1667L40.6667 29.2083C40.6389 29.2361 40.6111 29.25 40.5833 29.25C40.5694 29.2639 40.5417 29.2708 40.5 29.2708ZM12.4792 29.1875H13.1042V27.4167C13.1042 27.0833 13.0035 26.816 12.8021 26.6146C12.6007 26.4132 12.3264 26.3056 11.9792 26.2917C11.5347 26.2917 11.2083 26.4583 11 26.7917C10.8056 26.4583 10.4931 26.2917 10.0625 26.2917C9.72917 26.2917 9.45833 26.4306 9.25 26.7083V26.375H8.625V29.1875H9.25V27.625C9.25 27.125 9.47917 26.875 9.9375 26.875C10.3542 26.875 10.5625 27.125 10.5625 27.625V29.1875H11.1667V27.625C11.1667 27.125 11.3958 26.875 11.8542 26.875C12.2708 26.875 12.4792 27.125 12.4792 27.625V29.1875ZM15.9375 29.1875H16.5417V26.375H15.9375V26.7083C15.7014 26.4306 15.4028 26.2917 15.0417 26.2917C14.6389 26.2917 14.3056 26.4306 14.0417 26.7083C13.7778 26.9861 13.6458 27.3403 13.6458 27.7708C13.6458 28.2014 13.7778 28.5556 14.0417 28.8333C14.3056 29.1111 14.6389 29.25 15.0417 29.25C15.4306 29.25 15.7292 29.1111 15.9375 28.8333V29.1875ZM19.6458 28.3333C19.6458 27.8611 19.3194 27.5833 18.6667 27.5L18.375 27.4583C18.0556 27.4028 17.8958 27.3056 17.8958 27.1667C17.8958 26.9583 18.0694 26.8542 18.4167 26.8542C18.7361 26.8542 19.0347 26.9306 19.3125 27.0833L19.5625 26.5833C19.2569 26.3889 18.875 26.2917 18.4167 26.2917C18.0556 26.2917 17.7708 26.375 17.5625 26.5417C17.3542 26.7083 17.25 26.9306 17.25 27.2083C17.25 27.6667 17.5764 27.9375 18.2292 28.0208L18.5 28.0625C18.8333 28.1181 19 28.2153 19 28.3542C19 28.5903 18.7847 28.7083 18.3542 28.7083C18.0069 28.7083 17.6944 28.6111 17.4167 28.4167L17.1458 28.8958C17.4931 29.1319 17.8958 29.25 18.3542 29.25C18.7569 29.25 19.0729 29.1667 19.3021 29C19.5312 28.8333 19.6458 28.6111 19.6458 28.3333ZM22.3542 29.0417L22.1875 28.5208C22.0069 28.6181 21.8264 28.6667 21.6458 28.6667C21.3819 28.6667 21.25 28.5139 21.25 28.2083V26.9375H22.25V26.375H21.25V25.5208H20.625V26.375H20.0417V26.9375H20.625V28.2083C20.625 28.9028 20.9514 29.25 21.6042 29.25C21.8958 29.25 22.1458 29.1806 22.3542 29.0417ZM24.1458 26.2917C23.7431 26.2917 23.4097 26.4306 23.1458 26.7083C22.8819 26.9861 22.75 27.3403 22.75 27.7708C22.75 28.2153 22.8854 28.5729 23.1562 28.8438C23.4271 29.1146 23.7708 29.25 24.1875 29.25C24.6458 29.25 25.0278 29.1181 25.3333 28.8542L25.0417 28.3958C24.7917 28.6042 24.5208 28.7083 24.2292 28.7083C23.7569 28.7083 23.4722 28.4792 23.375 28.0208H25.4792V27.7708C25.4792 27.3264 25.3542 26.9688 25.1042 26.6979C24.8542 26.4271 24.5347 26.2917 24.1458 26.2917ZM27.4583 26.2917C27.1389 26.2917 26.8958 26.4306 26.7292 26.7083V26.375H26.1042V29.1875H26.7292V27.6042C26.7292 27.1181 26.9306 26.875 27.3333 26.875C27.4722 26.875 27.5972 26.9028 27.7083 26.9583L27.8958 26.375C27.7708 26.3194 27.625 26.2917 27.4583 26.2917ZM28.0833 27.7708C28.0833 28.2014 28.2188 28.5556 28.4896 28.8333C28.7604 29.1111 29.125 29.25 29.5833 29.25C29.9861 29.25 30.3194 29.1389 30.5833 28.9167L30.2917 28.4167C30.0417 28.5972 29.7986 28.6806 29.5625 28.6667C29.3125 28.6667 29.1076 28.5833 28.9479 28.4167C28.7882 28.25 28.7083 28.0347 28.7083 27.7708C28.7083 27.5069 28.7882 27.2917 28.9479 27.125C29.1076 26.9583 29.3125 26.875 29.5625 26.875C29.8264 26.875 30.0694 26.9583 30.2917 27.125L30.5833 26.625C30.3056 26.4028 29.9722 26.2917 29.5833 26.2917C29.125 26.2917 28.7604 26.4306 28.4896 26.7083C28.2188 26.9861 28.0833 27.3403 28.0833 27.7708ZM33.1875 29.1875H33.8125V26.375H33.1875V26.7083C32.9792 26.4306 32.6875 26.2917 32.3125 26.2917C31.9097 26.2917 31.5729 26.4306 31.3021 26.7083C31.0312 26.9861 30.8958 27.3403 30.8958 27.7708C30.8958 28.2014 31.0312 28.5556 31.3021 28.8333C31.5729 29.1111 31.9097 29.25 32.3125 29.25C32.7014 29.25 32.9931 29.1111 33.1875 28.8333V29.1875ZM35.9583 26.2917C35.6389 26.2917 35.3958 26.4306 35.2292 26.7083V26.375H34.625V29.1875H35.2292V27.6042C35.2292 27.1181 35.4306 26.875 35.8333 26.875C35.9722 26.875 36.0972 26.9028 36.2083 26.9583L36.3958 26.375C36.2847 26.3194 36.1389 26.2917 35.9583 26.2917ZM38.875 29.1875H39.4792V25.2292H38.875V26.7083C38.6667 26.4306 38.3681 26.2917 37.9792 26.2917C37.5903 26.2917 37.2604 26.434 36.9896 26.7188C36.7188 27.0035 36.5833 27.3542 36.5833 27.7708C36.5833 28.1875 36.7188 28.5382 36.9896 28.8229C37.2604 29.1076 37.5903 29.25 37.9792 29.25C38.3819 29.25 38.6806 29.1111 38.875 28.8333V29.1875ZM40.5 28.7708L40.4583 28.7917H40.3958C40.3681 28.8056 40.3403 28.8264 40.3125 28.8542C40.2708 28.8681 40.25 28.8958 40.25 28.9375C40.2361 28.9653 40.2292 29.0069 40.2292 29.0625C40.2292 29.1042 40.2361 29.1389 40.25 29.1667C40.25 29.1944 40.2708 29.2222 40.3125 29.25C40.3403 29.2778 40.3681 29.2986 40.3958 29.3125C40.4236 29.3264 40.4583 29.3333 40.5 29.3333C40.5556 29.3333 40.5972 29.3264 40.625 29.3125C40.625 29.2986 40.6389 29.2847 40.6667 29.2708L40.7083 29.25C40.7222 29.2361 40.7431 29.2083 40.7708 29.1667C40.7847 29.1389 40.7917 29.1042 40.7917 29.0625C40.7917 29.0069 40.7847 28.9653 40.7708 28.9375C40.7569 28.9236 40.7361 28.8958 40.7083 28.8542C40.7083 28.8403 40.6944 28.8264 40.6667 28.8125L40.625 28.7917C40.6111 28.7917 40.5903 28.7882 40.5625 28.7812C40.5347 28.7743 40.5139 28.7708 40.5 28.7708ZM48 2.66667V29.3333C48 30.0556 47.7361 30.6806 47.2083 31.2083C46.6806 31.7361 46.0556 32 45.3333 32H2.66667C1.94444 32 1.31944 31.7361 0.791667 31.2083C0.263889 30.6806 0 30.0556 0 29.3333V2.66667C0 1.94444 0.263889 1.31944 0.791667 0.791667C1.31944 0.263889 1.94444 0 2.66667 0H45.3333C46.0556 0 46.6806 0.263889 47.2083 0.791667C47.7361 1.31944 48 1.94444 48 2.66667Z" fill="#7E8183"/>
</svg>
