<svg width="36" height="36" viewBox="0 0 36 36" fill="none" xmlns="http://www.w3.org/2000/svg">
<rect width="36" height="36" rx="6" fill="white"/>
<g clip-path="url(#clip0)">
<path d="M5 18.5002C5 24.0282 8.32416 28.7773 13.0809 30.8653C13.0429 29.9226 13.0742 28.7909 13.3159 27.7652C13.5755 26.6693 15.053 20.409 15.053 20.409C15.053 20.409 14.6217 19.547 14.6217 18.273C14.6217 16.2724 15.7812 14.7782 17.2253 14.7782C18.4533 14.7782 19.0465 15.7005 19.0465 16.805C19.0465 18.0394 18.2592 19.8859 17.8543 21.596C17.5161 23.0281 18.5724 24.1962 19.9851 24.1962C22.5429 24.1962 24.2657 20.9109 24.2657 17.0185C24.2657 14.0597 22.2728 11.845 18.6482 11.845C14.553 11.845 12.0019 14.899 12.0019 18.3103C12.0019 19.4864 12.3486 20.3159 12.8918 20.9582C13.1416 21.2532 13.1763 21.3718 13.0859 21.7106C13.0211 21.959 12.8724 22.557 12.8108 22.7939C12.7209 23.1359 12.4439 23.2581 12.1349 23.1319C10.2487 22.3618 9.3702 20.2962 9.3702 17.9742C9.3702 14.1393 12.6045 9.54085 19.0187 9.54085C24.173 9.54085 27.5654 13.2706 27.5654 17.2743C27.5654 22.5702 24.6211 26.5267 20.281 26.5267C18.8236 26.5267 17.4526 25.7388 16.9829 24.8439C16.9829 24.8439 16.1992 27.9544 16.0332 28.5551C15.7469 29.5959 15.1867 30.6363 14.6744 31.4471C15.9166 31.8144 17.2052 32.0009 18.5005 32.0007C25.9555 32.0007 32.0001 25.9564 32.0001 18.5002C32.0001 11.0443 25.9555 5 18.5005 5C11.0448 5 5 11.0443 5 18.5002Z" fill="url(#paint0_linear)"/>
</g>
<defs>
<linearGradient id="paint0_linear" x1="8.24" y1="5" x2="23.9" y2="32" gradientUnits="userSpaceOnUse">
<stop stop-color="#D22A2D"/>
<stop offset="1" stop-color="#D22C2E"/>
</linearGradient>
<clipPath id="clip0">
<rect width="27" height="27" fill="white" transform="translate(5 5)"/>
</clipPath>
</defs>
</svg>
