<svg width="36" height="36" viewBox="0 0 36 36" fill="none" xmlns="http://www.w3.org/2000/svg">
<rect width="36" height="36" rx="6" fill="url(#paint0_linear)"/>
<path d="M18 6.52262C21.7381 6.52262 22.1809 6.53684 23.6571 6.60411C25.0221 6.66645 25.7634 6.8945 26.2568 7.08623C26.9102 7.3402 27.3766 7.64361 27.8665 8.1335C28.3565 8.62339 28.6598 9.08977 28.9138 9.74317C29.1055 10.2366 29.3335 10.9779 29.3959 12.3428C29.4632 13.8191 29.4774 14.2619 29.4774 18C29.4774 21.7382 29.4632 22.181 29.3959 23.6572C29.3335 25.0222 29.1055 25.7634 28.9138 26.2568C28.6598 26.9102 28.3564 27.3767 27.8665 27.8666C27.3766 28.3565 26.9102 28.6599 26.2568 28.9138C25.7634 29.1055 25.0221 29.3337 23.6571 29.3959C22.1811 29.4633 21.7383 29.4775 18 29.4775C14.2616 29.4775 13.8188 29.4633 12.3428 29.3959C10.9778 29.3335 10.2366 29.1055 9.74317 28.9138C9.08977 28.6599 8.62328 28.3565 8.13339 27.8666C7.6435 27.3766 7.34009 26.9102 7.08623 26.2568C6.8945 25.7635 6.66634 25.0222 6.60411 23.6572C6.53673 22.181 6.52252 21.7382 6.52252 18C6.52252 14.2619 6.53673 13.8191 6.60411 12.3429C6.66645 10.9779 6.8945 10.2366 7.08623 9.74317C7.34009 9.08977 7.6435 8.62339 8.13339 8.1335C8.62339 7.6435 9.08977 7.3402 9.74317 7.08623C10.2365 6.8945 10.9778 6.66645 12.3428 6.60411C13.819 6.53684 14.2618 6.52262 18 6.52262ZM18 4C14.1978 4 13.721 4.01608 12.2278 4.08422C10.7376 4.15225 9.71987 4.38894 8.82945 4.735C7.90873 5.09277 7.12802 5.5715 6.3497 6.34981C5.57139 7.12812 5.09277 7.90884 4.735 8.82945C4.38883 9.71998 4.15225 10.7377 4.08422 12.2278C4.01608 13.721 4 14.1978 4 18C4 21.8022 4.01608 22.279 4.08422 23.7722C4.15225 25.2624 4.38883 26.2801 4.735 27.1705C5.09266 28.0912 5.57139 28.872 6.3497 29.6503C7.12802 30.4286 7.90873 30.9072 8.82945 31.265C9.71998 31.6112 10.7376 31.8477 12.2277 31.9158C13.721 31.9839 14.1978 32 18 32C21.8022 32 22.279 31.9839 23.7722 31.9158C25.2623 31.8477 26.28 31.6112 27.1704 31.265C28.0912 30.9073 28.8719 30.4286 29.6502 29.6503C30.4285 28.872 30.9072 28.0913 31.265 27.1705C31.6111 26.28 31.8477 25.2624 31.9158 23.7723C31.9839 22.279 32 21.8022 32 18C32 14.1978 31.9839 13.721 31.9158 12.2278C31.8477 10.7377 31.6111 9.71998 31.265 8.82956C30.9072 7.90884 30.4285 7.12812 29.6502 6.34981C28.8719 5.5715 28.0912 5.09266 27.1705 4.735C26.28 4.38894 25.2623 4.15225 23.7722 4.08422C22.279 4.01608 21.8022 4 18 4ZM18 10.8108C14.0295 10.8108 10.8108 14.0297 10.8108 18C10.8108 21.9705 14.0295 25.1892 18 25.1892C21.9704 25.1892 25.1892 21.9705 25.1892 18C25.1892 14.0296 21.9704 10.8108 18 10.8108ZM18 22.6667C15.4227 22.6667 13.3333 20.5773 13.3333 18C13.3333 15.4227 15.4227 13.3333 18 13.3333C20.5773 13.3333 22.6667 15.4227 22.6667 18C22.6667 20.5773 20.5773 22.6667 18 22.6667ZM27.1532 10.5267C27.1532 11.4547 26.4011 12.2067 25.4732 12.2067C24.5453 12.2067 23.7932 11.4547 23.7932 10.5267C23.7932 9.59891 24.5453 8.84673 25.4732 8.84673C26.4011 8.84673 27.1532 9.59891 27.1532 10.5267Z" fill="white"/>
<defs>
<linearGradient id="paint0_linear" x1="3.5" y1="3.5" x2="18" y2="36" gradientUnits="userSpaceOnUse">
<stop stop-color="#B4B4B4"/>
<stop offset="0.28125" stop-color="#B3B3B3"/>
<stop offset="0.546875" stop-color="#B7B7B7"/>
<stop offset="0.776042" stop-color="#CECECE"/>
<stop offset="1" stop-color="#EDEDED"/>
</linearGradient>
</defs>
</svg>
