<svg width="36" height="36" viewBox="0 0 36 36" fill="none" xmlns="http://www.w3.org/2000/svg">
<rect width="36" height="36" rx="6" fill="white"/>
<path d="M15.1125 14.3112L22.6812 18.2889L15.1125 22.3V14.3112Z" fill="white"/>
<path opacity="0.12" d="M15.1125 22.3L21.7515 17.8L22.6812 18.2889L15.1125 22.3Z" fill="#3A3A3A"/>
<path d="M31.7048 23.6889C31.7048 23.6889 31.4315 25.6444 30.5896 26.5111C29.5291 27.6444 28.3374 27.6444 27.7798 27.7111C23.8767 28 18.0055 28 18.0055 28H17.9945C17.9945 28 12.1234 28 8.19836 27.7111C7.6517 27.6444 6.45995 27.6444 5.38852 26.5111C4.55759 25.6444 4.28427 23.6889 4.28427 23.6889C4.28427 23.6889 4 21.3778 4 19.0778V16.9222C4 14.6222 4.28427 12.3222 4.28427 12.3222C4.28427 12.3222 4.55759 10.3667 5.39945 9.5C6.45995 8.36667 7.85941 8.4 8.48263 8.28889C10.7239 8.06667 17.9945 8 17.9945 8C17.9945 8 23.8766 8.01111 27.7907 8.3C28.3374 8.36667 29.5291 8.36667 30.6005 9.5C31.4424 10.3667 31.7157 12.3222 31.7157 12.3222C31.7157 12.3222 32 14.6222 32 16.9222V19.0778C31.9891 21.3778 31.7048 23.6889 31.7048 23.6889ZM15.1082 14.3111V22.3L22.6739 18.2889L15.1081 14.3111H15.1082Z" fill="url(#paint0_linear)"/>
<defs>
<linearGradient id="paint0_linear" x1="17.9944" y1="28" x2="17.9944" y2="7.994" gradientUnits="userSpaceOnUse">
<stop stop-color="#E52D27"/>
<stop offset="1" stop-color="#BF171D"/>
</linearGradient>
</defs>
</svg>
