<svg width="60" height="60" viewBox="0 0 60 60" fill="none" xmlns="http://www.w3.org/2000/svg">
<circle cx="30" cy="30" r="30" fill="#FEE5FF"/>
<path d="M42 21.1397C42 19.4057 40.5943 18 38.8603 18H21.1397C19.4057 18 18 19.4057 18 21.1397V38.8601C18 40.5943 19.4057 42 21.1397 42H38.8601C40.5943 42 42 40.5943 42 38.8603V21.1397ZM23.3872 37.5977C22.8672 37.7372 22.3914 37.2613 22.5308 36.7413L23.3932 33.5271L26.6013 36.7352L23.3872 37.5977ZM37.2421 25.9088L27.7474 35.4036L24.5539 32.2102L34.0486 22.7155C34.499 22.2652 35.2289 22.2652 35.6792 22.7155L37.2421 24.2783C37.6923 24.7285 37.6923 25.4585 37.2421 25.9088Z" fill="#C774EE"/>
</svg>
