<svg width="10" height="10" viewBox="0 0 10 10" fill="none" xmlns="http://www.w3.org/2000/svg">
<path d="M9.0835 4.41658H5.5835V0.916585C5.5835 0.761876 5.52204 0.613503 5.41264 0.504106C5.30324 0.39471 5.15487 0.333252 5.00016 0.333252C4.84545 0.333252 4.69708 0.39471 4.58768 0.504106C4.47829 0.613503 4.41683 0.761876 4.41683 0.916585V4.41658H0.916829C0.76212 4.41658 0.613747 4.47804 0.504351 4.58744C0.394954 4.69684 0.333496 4.84521 0.333496 4.99992C0.333496 5.15463 0.394954 5.303 0.504351 5.4124C0.613747 5.52179 0.76212 5.58325 0.916829 5.58325H4.41683V9.08325C4.41683 9.23796 4.47829 9.38633 4.58768 9.49573C4.69708 9.60513 4.84545 9.66658 5.00016 9.66658C5.15487 9.66658 5.30324 9.60513 5.41264 9.49573C5.52204 9.38633 5.5835 9.23796 5.5835 9.08325V5.58325H9.0835C9.2382 5.58325 9.38658 5.52179 9.49597 5.4124C9.60537 5.303 9.66683 5.15463 9.66683 4.99992C9.66683 4.84521 9.60537 4.69684 9.49597 4.58744C9.38658 4.47804 9.2382 4.41658 9.0835 4.41658Z" fill="#3A3A3A" stroke="#3A3A3A" stroke-width="0.5"/>
</svg>
