<svg width="24" height="25" viewBox="0 0 24 25" fill="none" xmlns="http://www.w3.org/2000/svg">
<path d="M10 18.5C11.775 18.4996 13.4988 17.9054 14.897 16.812L19.293 21.208L20.707 19.794L16.311 15.398C17.405 13.9997 17.9996 12.2754 18 10.5C18 6.089 14.411 2.5 10 2.5C5.589 2.5 2 6.089 2 10.5C2 14.911 5.589 18.5 10 18.5ZM10 4.5C13.309 4.5 16 7.191 16 10.5C16 13.809 13.309 16.5 10 16.5C6.691 16.5 4 13.809 4 10.5C4 7.191 6.691 4.5 10 4.5Z" fill="#63718E"/>
<path d="M11.412 9.08609C11.791 9.46609 12 9.96809 12 10.5001H14C14.0008 9.97451 13.8975 9.45398 13.696 8.96857C13.4945 8.48316 13.1988 8.04251 12.826 7.67209C11.312 6.16009 8.68695 6.16009 7.17395 7.67209L8.58595 9.08809C9.34595 8.33009 10.656 8.33209 11.412 9.08609Z" fill="#63718E"/>
</svg>
