<svg width="141" height="19" viewBox="0 0 141 19" fill="none" xmlns="http://www.w3.org/2000/svg">
<path d="M1.01562 15V3.625H4.51562C5.51562 3.625 6.40885 3.85156 7.19531 4.30469C7.98698 4.7526 8.60417 5.39323 9.04688 6.22656C9.48958 7.05469 9.71094 7.9974 9.71094 9.05469V9.57812C9.71094 10.6354 9.49219 11.5755 9.05469 12.3984C8.6224 13.2214 8.01042 13.8594 7.21875 14.3125C6.42708 14.7656 5.53385 14.9948 4.53906 15H1.01562ZM3.35938 5.52344V13.1172H4.49219C5.40885 13.1172 6.10938 12.8177 6.59375 12.2188C7.07812 11.6198 7.32552 10.763 7.33594 9.64844V9.04688C7.33594 7.89062 7.09635 7.01562 6.61719 6.42188C6.13802 5.82292 5.4375 5.52344 4.51562 5.52344H3.35938ZM14.4844 3.625L17.4062 11.875L20.3125 3.625H23.3906V15H21.0391V11.8906L21.2734 6.52344L18.2031 15H16.5938L13.5312 6.53125L13.7656 11.8906V15H11.4219V3.625H14.4844ZM34.3672 11.2109C34.2786 12.4349 33.8255 13.3984 33.0078 14.1016C32.1953 14.8047 31.1224 15.1562 29.7891 15.1562C28.3307 15.1562 27.1823 14.6667 26.3438 13.6875C25.5104 12.7031 25.0938 11.3542 25.0938 9.64062V8.94531C25.0938 7.85156 25.2865 6.88802 25.6719 6.05469C26.0573 5.22135 26.6068 4.58333 27.3203 4.14062C28.0391 3.69271 28.8724 3.46875 29.8203 3.46875C31.1328 3.46875 32.1901 3.82031 32.9922 4.52344C33.7943 5.22656 34.2578 6.21354 34.3828 7.48438H32.0391C31.9818 6.75 31.776 6.21875 31.4219 5.89062C31.0729 5.55729 30.5391 5.39062 29.8203 5.39062C29.0391 5.39062 28.4531 5.67188 28.0625 6.23438C27.6771 6.79167 27.4792 7.65885 27.4688 8.83594V9.69531C27.4688 10.9245 27.6536 11.8229 28.0234 12.3906C28.3984 12.9583 28.987 13.2422 29.7891 13.2422C30.513 13.2422 31.0521 13.0781 31.4062 12.75C31.7656 12.4167 31.9714 11.9036 32.0234 11.2109H34.3672ZM42.3281 12.6562H38.2188L37.4375 15H34.9453L39.1797 3.625H41.3516L45.6094 15H43.1172L42.3281 12.6562ZM38.8516 10.7578H41.6953L40.2656 6.5L38.8516 10.7578Z" fill="#7E8183"/>
<path fill-rule="evenodd" clip-rule="evenodd" d="M51 0C50.4477 0 50 0.447716 50 1V17C50 17.5523 50.4477 18 51 18H140C140.552 18 141 17.5523 141 17V1C141 0.447715 140.552 0 140 0H51ZM81.3125 12.5156C81.7083 11.6719 81.9062 10.6901 81.9062 9.57031V9.0625C81.9062 7.94792 81.7031 6.96615 81.2969 6.11719C80.8958 5.26302 80.3255 4.60938 79.5859 4.15625C78.8516 3.69792 78.0104 3.46875 77.0625 3.46875C76.1146 3.46875 75.2708 3.69792 74.5312 4.15625C73.7969 4.60938 73.2266 5.26302 72.8203 6.11719C72.4193 6.96615 72.2188 7.95052 72.2188 9.07031V9.63281C72.224 10.7266 72.4297 11.6953 72.8359 12.5391C73.2422 13.3776 73.8151 14.0234 74.5547 14.4766C75.2943 14.9297 76.1354 15.1562 77.0781 15.1562C78.0312 15.1562 78.875 14.9271 79.6094 14.4688C80.349 14.0104 80.9167 13.3594 81.3125 12.5156ZM78.8906 6.33594C79.3177 6.95573 79.5312 7.86198 79.5312 9.05469V9.60938C79.526 10.7917 79.3125 11.6927 78.8906 12.3125C78.4688 12.9271 77.8646 13.2344 77.0781 13.2344C76.276 13.2344 75.6615 12.9141 75.2344 12.2734C74.8073 11.6328 74.5938 10.7318 74.5938 9.57031V9.01562C74.599 7.83333 74.8151 6.9375 75.2422 6.32812C75.6693 5.71354 76.276 5.40625 77.0625 5.40625C77.8542 5.40625 78.4635 5.71615 78.8906 6.33594ZM54.3594 10.9922V15H52.0156V3.625H56.4531C57.3073 3.625 58.0573 3.78125 58.7031 4.09375C59.3542 4.40625 59.8542 4.85156 60.2031 5.42969C60.5521 6.0026 60.7266 6.65625 60.7266 7.39062C60.7266 8.50521 60.3438 9.38542 59.5781 10.0312C58.8177 10.6719 57.763 10.9922 56.4141 10.9922H54.3594ZM54.3594 9.09375H56.4531C57.0729 9.09375 57.5443 8.94792 57.8672 8.65625C58.1953 8.36458 58.3594 7.94792 58.3594 7.40625C58.3594 6.84896 58.1953 6.39844 57.8672 6.05469C57.5391 5.71094 57.0859 5.53385 56.5078 5.52344H54.3594V9.09375ZM66.5547 10.8359H64.6875V15H62.3438V3.625H66.5703C67.9141 3.625 68.9505 3.92448 69.6797 4.52344C70.4089 5.1224 70.7734 5.96875 70.7734 7.0625C70.7734 7.83854 70.6042 8.48698 70.2656 9.00781C69.9323 9.52344 69.4245 9.9349 68.7422 10.2422L71.2031 14.8906V15H68.6875L66.5547 10.8359ZM64.6875 8.9375H66.5781C67.1667 8.9375 67.6224 8.78906 67.9453 8.49219C68.2682 8.1901 68.4297 7.77604 68.4297 7.25C68.4297 6.71354 68.276 6.29167 67.9688 5.98438C67.6667 5.67708 67.2005 5.52344 66.5703 5.52344H64.6875V8.9375ZM91.5 5.52344H88.0156V15H85.6719V5.52344H82.2344V3.625H91.5V5.52344ZM95.1875 10.0703H99.6875V8.23438H95.1875V5.52344H100.453V3.625H92.8438V15H100.469V13.1172H95.1875V10.0703ZM110.773 11.2109C110.685 12.4349 110.232 13.3984 109.414 14.1016C108.602 14.8047 107.529 15.1562 106.195 15.1562C104.737 15.1562 103.589 14.6667 102.75 13.6875C101.917 12.7031 101.5 11.3542 101.5 9.64062V8.94531C101.5 7.85156 101.693 6.88802 102.078 6.05469C102.464 5.22135 103.013 4.58333 103.727 4.14062C104.445 3.69271 105.279 3.46875 106.227 3.46875C107.539 3.46875 108.596 3.82031 109.398 4.52344C110.201 5.22656 110.664 6.21354 110.789 7.48438H108.445C108.388 6.75 108.182 6.21875 107.828 5.89062C107.479 5.55729 106.945 5.39062 106.227 5.39062C105.445 5.39062 104.859 5.67188 104.469 6.23438C104.083 6.79167 103.885 7.65885 103.875 8.83594V9.69531C103.875 10.9245 104.06 11.8229 104.43 12.3906C104.805 12.9583 105.393 13.2422 106.195 13.2422C106.919 13.2422 107.458 13.0781 107.812 12.75C108.172 12.4167 108.378 11.9036 108.43 11.2109H110.773ZM117.156 5.52344H120.641V3.625H111.375V5.52344H114.812V15H117.156V5.52344ZM128.828 10.0703H124.328V13.1172H129.609V15H121.984V3.625H129.594V5.52344H124.328V8.23438H128.828V10.0703ZM130.984 3.625V15H134.508C135.503 14.9948 136.396 14.7656 137.188 14.3125C137.979 13.8594 138.591 13.2214 139.023 12.3984C139.461 11.5755 139.68 10.6354 139.68 9.57812V9.05469C139.68 7.9974 139.458 7.05469 139.016 6.22656C138.573 5.39323 137.956 4.7526 137.164 4.30469C136.378 3.85156 135.484 3.625 134.484 3.625H130.984ZM133.328 13.1172V5.52344H134.484C135.406 5.52344 136.107 5.82292 136.586 6.42188C137.065 7.01562 137.305 7.89062 137.305 9.04688V9.64844C137.294 10.763 137.047 11.6198 136.562 12.2188C136.078 12.8177 135.378 13.1172 134.461 13.1172H133.328Z" fill="#7E8183"/>
</svg>
