<svg width="10" height="6" viewBox="0 0 10 6" fill="none" xmlns="http://www.w3.org/2000/svg">
<path d="M9.16658 5.36241C9.01045 5.51762 8.79924 5.60474 8.57908 5.60474C8.35893 5.60474 8.14772 5.51762 7.99158 5.36241L4.99992 2.41241L2.04992 5.36241C1.89378 5.51762 1.68257 5.60474 1.46242 5.60474C1.24226 5.60474 1.03105 5.51762 0.874917 5.36241C0.79681 5.28494 0.734814 5.19277 0.692507 5.09122C0.6502 4.98967 0.628418 4.88075 0.628418 4.77074C0.628418 4.66073 0.6502 4.55181 0.692507 4.45026C0.734814 4.34871 0.79681 4.25655 0.874917 4.17908L4.40825 0.645743C4.48572 0.567636 4.57789 0.505641 4.67944 0.463334C4.78099 0.421026 4.88991 0.399244 4.99992 0.399244C5.10993 0.399244 5.21885 0.421026 5.3204 0.463334C5.42195 0.505641 5.51411 0.567636 5.59158 0.645743L9.16658 4.17908C9.24469 4.25655 9.30669 4.34871 9.34899 4.45026C9.3913 4.55181 9.41308 4.66073 9.41308 4.77074C9.41308 4.88075 9.3913 4.98967 9.34899 5.09122C9.30669 5.19277 9.24469 5.28494 9.16658 5.36241Z" fill="#252525"/>
</svg>
