<svg width="10" height="6" viewBox="0 0 10 6" fill="none" xmlns="http://www.w3.org/2000/svg">
<path d="M9.16658 0.641741C9.01045 0.486532 8.79924 0.399414 8.57908 0.399414C8.35893 0.399414 8.14772 0.486532 7.99158 0.641741L4.99992 3.59174L2.04992 0.641741C1.89378 0.486532 1.68257 0.399414 1.46242 0.399414C1.24226 0.399414 1.03105 0.486532 0.874917 0.641741C0.79681 0.71921 0.734814 0.811378 0.692507 0.912927C0.6502 1.01448 0.628418 1.1234 0.628418 1.23341C0.628418 1.34342 0.6502 1.45234 0.692507 1.55389C0.734814 1.65544 0.79681 1.74761 0.874917 1.82507L4.40825 5.35841C4.48572 5.43651 4.57789 5.49851 4.67944 5.54082C4.78099 5.58312 4.88991 5.60491 4.99992 5.60491C5.10993 5.60491 5.21885 5.58312 5.3204 5.54082C5.42195 5.49851 5.51411 5.43651 5.59158 5.35841L9.16658 1.82507C9.24469 1.74761 9.30669 1.65544 9.34899 1.55389C9.3913 1.45234 9.41308 1.34342 9.41308 1.23341C9.41308 1.1234 9.3913 1.01448 9.34899 0.912927C9.30669 0.811378 9.24469 0.71921 9.16658 0.641741Z" fill="#252525"/>
</svg>
