<svg width="9" height="6" viewBox="0 0 9 6" fill="none" xmlns="http://www.w3.org/2000/svg">
<path d="M8.88574 1.1249C8.88574 1.19938 8.85645 1.26527 8.79785 1.32256L4.70215 5.32725C4.64355 5.38454 4.57617 5.41318 4.5 5.41318C4.42383 5.41318 4.35645 5.38454 4.29785 5.32725L0.202148 1.32256C0.143555 1.26527 0.114258 1.19938 0.114258 1.1249C0.114258 1.05042 0.143555 0.984538 0.202148 0.927246L0.641602 0.497559C0.700195 0.440267 0.767578 0.411621 0.84375 0.411621C0.919922 0.411621 0.987305 0.440267 1.0459 0.497559L4.5 3.8749L7.9541 0.497559C8.0127 0.440267 8.08008 0.411621 8.15625 0.411621C8.23242 0.411621 8.2998 0.440267 8.3584 0.497559L8.79785 0.927246C8.85645 0.984538 8.88574 1.05042 8.88574 1.1249Z" fill="#C774EE"/>
</svg>
