<svg width="30" height="30">
  <symbol fill="none" xmlns="http://www.w3.org/2000/svg" viewBox="0 0 24 25" id="contact">
    <path d="M15.535 3.308c-.756-.756-2.072-.756-2.828 0l-9.899 9.899a2 2 0 000 2.828l5.657 5.657c.378.378.88.586 1.414.586.534 0 1.036-.208 1.414-.586l9.9-9.899a1.99 1.99 0 00.585-1.414c0-.534-.208-1.036-.586-1.414l-5.657-5.657zM9.88 20.278v1-1l-5.657-5.657 9.9-9.899 5.656 5.657-9.899 9.899z" fill="#63718E"></path>
    <path d="M9 16.5a1 1 0 100-2 1 1 0 000 2zm6.707 5.707l-1.414-1.414 6-6 1.414 1.415-6 5.999zM8.293 2.793l1.414 1.414-6 6-1.414-1.415 6-5.999z" fill="#63718E"></path>
  </symbol>
</svg>